<svg xmlns="http://www.w3.org/2000/svg" width="1200" height="630" viewBox="0 0 1200 630">
  <defs>
    <linearGradient id="bg" x1="0" y1="0" x2="1" y2="1">
      <stop offset="0" stop-color="#f8fafc"/>
      <stop offset="1" stop-color="#e8f0fb"/>
    </linearGradient>
  </defs>
  <rect width="1200" height="630" fill="url(#bg)"/>
  <rect x="68" y="66" width="1064" height="498" rx="32" fill="#fff" stroke="#dbe3ee" stroke-width="2"/>
  <rect x="110" y="112" width="78" height="78" rx="20" fill="#2563eb"/>
  <path d="M130 151h38M149 132v38" stroke="#fff" stroke-width="9" stroke-linecap="round"/>
  <text x="215" y="168" font-family="Arial, sans-serif" font-size="54" font-weight="700" fill="#172033">PhotoSahi</text>
  <text x="110" y="265" font-family="Arial, sans-serif" font-size="40" font-weight="700" fill="#172033">Prepare ID photos privately</text>
  <text x="110" y="318" font-family="Arial, sans-serif" font-size="27" fill="#475569">Passport • OCI • PCC • Canadian applications</text>
  <rect x="110" y="370" width="370" height="64" rx="16" fill="#eff6ff" stroke="#bfdbfe"/>
  <text x="295" y="411" text-anchor="middle" font-family="Arial, sans-serif" font-size="22" font-weight="700" fill="#1d4ed8">Processed in your browser</text>
  <text x="110" y="493" font-family="Arial, sans-serif" font-size="21" fill="#64748b">JPEG • PNG • HEIC • HEIF</text>
  <rect x="780" y="128" width="248" height="348" rx="28" fill="#f8fafc" stroke="#cbd5e1" stroke-width="3"/>
  <circle cx="904" cy="245" r="58" fill="#dbeafe"/>
  <path d="M832 405c10-75 44-112 72-112s62 37 72 112" fill="#bfdbfe"/>
  <path d="M796 452h216" stroke="#2563eb" stroke-width="8" stroke-linecap="round"/>
  <path d="M1018 166l18 18 34-40" fill="none" stroke="#22c55e" stroke-width="10" stroke-linecap="round" stroke-linejoin="round"/>
</svg>
